<svg id="Layer_1" data-name="Layer 1" xmlns="http://www.w3.org/2000/svg" viewBox="0 0 136 38"><defs><style>.cls-1{fill:#e50043;}.cls-2{fill:#485156;}</style></defs><title>Artboard 1g</title><path class="cls-1" d="M3,24.07a8.68,8.68,0,0,1-1.65-.42,8,8,0,0,1-1.24-.6L.09,23A.15.15,0,0,1,0,22.9a.18.18,0,0,1,.14-.23,18.63,18.63,0,0,0,4.74-1.81A18.38,18.38,0,0,0,8.76,18a8,8,0,0,1-5-1.54l-.07,0a.18.18,0,0,1-.07-.11.2.2,0,0,1,.14-.23,10.51,10.51,0,0,0,4.08-2,10.77,10.77,0,0,0,2.67-3.19,4.92,4.92,0,0,1-2-.34,4.67,4.67,0,0,1-1.15-.63h0a.27.27,0,0,1-.07-.08.22.22,0,0,1,.09-.29,9,9,0,0,0,3.14-2.43c1.25-1.69,1.71-4.83,1.88-6.79a.27.27,0,1,1,.53,0c.17,2,.64,5.1,1.89,6.79a8.77,8.77,0,0,0,3.1,2.43.21.21,0,0,1,.08.29.16.16,0,0,1-.06.08h0a4.67,4.67,0,0,1-1.15.63,5,5,0,0,1-2,.34,8.6,8.6,0,0,0,2.39,2.49,8.85,8.85,0,0,0,3.43,1.41.17.17,0,0,1,.15.2.19.19,0,0,1-.07.12l-.08.06a7.62,7.62,0,0,1-1.94,1,7.47,7.47,0,0,1-2.83.42,14.7,14.7,0,0,0,3.46,2.22,15.82,15.82,0,0,0,4,1.19.19.19,0,0,1,.15.21.2.2,0,0,1-.08.12l-.07.06a10.33,10.33,0,0,1-2.65,1.38,10.14,10.14,0,0,1-3.56.53v0l4.46,1.87a.22.22,0,0,1,.12.3.28.28,0,0,1-.12.12l-.05,0a6.28,6.28,0,0,1-.73.34,8,8,0,0,1-.82.28l.61.65a34.58,34.58,0,0,0,2.76,2.63.23.23,0,0,1,0,.31.21.21,0,0,1-.15.07,13,13,0,0,1-3.75-.26,13.33,13.33,0,0,1-3.18-1.12,9.76,9.76,0,0,0,.44,1.11,9.36,9.36,0,0,0,.56,1,.21.21,0,0,1-.07.3A.22.22,0,0,1,17,30a14.81,14.81,0,0,1-4.09-1.86,15.54,15.54,0,0,1-3.42-3,6.67,6.67,0,0,0,.16,1.06A7.73,7.73,0,0,0,10,27.36,12.77,12.77,0,0,1,6.37,28.7,13,13,0,0,1,2.62,29a.19.19,0,0,1-.14-.07.22.22,0,0,1,0-.31A36.38,36.38,0,0,0,5.27,26c.8-.86,1.51-1.7,2.13-2.49V23.4a12.69,12.69,0,0,1-2,1.05,12.71,12.71,0,0,1-2.72.83.27.27,0,0,1-.19,0,.24.24,0,0,1-.07-.34Z"/><path class="cls-2" d="M40.39,13.91a13.5,13.5,0,0,0-4-.61c-3.89,0-5.47,1.66-5.47,5.73s1.5,5.71,5.73,5.71a14.22,14.22,0,0,0,3.1-.35c.82-.26,1-.68,1-1.52V18.73a.34.34,0,0,0-.36-.34H36.65a.32.32,0,0,0-.35.31v1.12a.34.34,0,0,0,.33.31l1.67.21V22.8a8.78,8.78,0,0,1-1.61.16c-2.6,0-3.35-.88-3.35-3.89s.79-3.91,3.36-3.91a12.06,12.06,0,0,1,3,.41l.31.07h0l.2,0a.34.34,0,0,0,.35-.28l.21-.92,0-.15C40.73,14.07,40.56,14,40.39,13.91Z"/><path class="cls-2" d="M52.64,13.49H50.75a.43.43,0,0,0-.42.28l-2.65,4.52-2.74-4.53a.5.5,0,0,0-.45-.27h-2a.4.4,0,0,0-.34.37l0,.16h0l4.16,6.28v3.9a.36.36,0,0,0,.38.35h1.65a.36.36,0,0,0,.39-.35V20.28L52.94,14v0l0-.11A.34.34,0,0,0,52.64,13.49Z"/><path class="cls-2" d="M62.37,22.63H57.23V13.8a.34.34,0,0,0-.33-.34l-1.73.27h0c-.31,0-.35.25-.35.33V24.2a.36.36,0,0,0,.38.35h7.18a.36.36,0,0,0,.37-.36V23A.37.37,0,0,0,62.37,22.63Z"/><path class="cls-2" d="M69.54,13.49H65.07a.36.36,0,0,0-.37.37V24.19a.36.36,0,0,0,.37.36h4.47c3.78,0,5.18-1.5,5.18-5.53S73.32,13.49,69.54,13.49Zm-.26,9.13H67.11V15.26h2.17c2.2,0,3,.57,3,3.74S71.38,22.62,69.28,22.62Z"/><path class="cls-2" d="M84.87,22.63H79.61V19.79h5a.37.37,0,0,0,.37-.35V18.28a.36.36,0,0,0-.37-.36h-5V15.35h5.24a.35.35,0,0,0,.37-.37V13.84a.35.35,0,0,0-.37-.35H77.6a.38.38,0,0,0-.39.37V24.19a.37.37,0,0,0,.39.36h7.27a.36.36,0,0,0,.37-.36V23A.37.37,0,0,0,84.87,22.63Z"/><path class="cls-2" d="M106.71,13.49h-4.48a.37.37,0,0,0-.37.37V24.19a.37.37,0,0,0,.37.36h4.48c3.77,0,5.18-1.5,5.18-5.53S110.48,13.49,106.71,13.49Zm-.26,9.14-2.17,0V15.26h2.17c2.2,0,3,.57,3,3.74S108.55,22.63,106.45,22.63Z"/><path class="cls-2" d="M135.07,22.63h-5.14V13.8a.33.33,0,0,0-.33-.34l-1.73.27h0a.41.41,0,0,0-.34.47v10a.35.35,0,0,0,.37.35h7.18a.37.37,0,0,0,.38-.36V23A.38.38,0,0,0,135.07,22.63Z"/><path class="cls-2" d="M90.49,16.86c.09.22,5.19,7.35,5.19,7.35a.66.66,0,0,0,.63.35h1.75a.4.4,0,0,0,.43-.4V13.91c0-.1,0-.41-.47-.41l-1.5.27c-.5.09-.47.42-.47.54s.06,4.88.08,6.68c-.91-1.32-5-7.18-5-7.18a.59.59,0,0,0-.46-.31h-2a.42.42,0,0,0-.43.39V24.16a.4.4,0,0,0,.41.4h1.58a.4.4,0,0,0,.42-.4Z"/><path class="cls-2" d="M125.34,24l-3.76-9.43a2.2,2.2,0,0,0-2.28-1.29h0A2.21,2.21,0,0,0,117,14.55L113.23,24a.7.7,0,0,0,0,.19c0,.27.27.42.8.42h1.13a.67.67,0,0,0,.64-.42l.89-2.31h5.26c.07.16.89,2.31.89,2.31a.69.69,0,0,0,.64.42h1.14c.53,0,.79-.15.79-.42A.9.9,0,0,0,125.34,24Zm-8-4c.3-.85,1.71-4.55,1.71-4.55s.13-.14.25-.14h0c.12,0,.2,0,.25.14s1.41,3.7,1.71,4.55Z"/></svg>